
        <svg xmlns="http://www.w3.org/2000/svg" xmlns:xlink="http://www.w3.org/1999/xlink" version="1.1" width="3193.548387096774" 
        height="3156.5115750803643" viewBox="0 0 3193.548387096774 3156.5115750803643">
			<rect fill="#e1306c" width="3193.548387096774" height="3156.5115750803643"/>
			<g transform="scale(9.67741935483871) translate(10, 10)">
				<defs id="SvgjsDefs2000"></defs><g id="SvgjsG2001" featureKey="rootContainer" transform="matrix(2.9388568246550153,0,0,2.9388568246550153,-0.11025446391769686,0.08425770368723878)" fill="#ffffff"><path xmlns="http://www.w3.org/2000/svg" d="M104.6 41.3a52.2 52.2 0 0 0-3.5-11.2A51.1 51.1 0 0 0 44.3 1a49.6 49.6 0 0 0-5.7 1.5 49.1 49.1 0 0 0-7.9 2.7A51.6 51.6 0 0 0 6.3 77a53.7 53.7 0 0 0 4.1 6.4 57 57 0 0 0 5 5.7 51.7 51.7 0 0 0 55.3 11.5l3.3-1.4 3-1.5a50.9 50.9 0 0 0 5.8-3.8l2.7-2.1 1.2-1.1 1.1-.9 2-1.8.7-.6.6-.7 1.8-2a48.5 48.5 0 0 0 5.9-8.3 50.4 50.4 0 0 0 5.6-14.7 51.6 51.6 0 0 0 .2-20.4zM87.1 88.6l-1.2 1.1-1.2 1.1-2.6 2.1a49.5 49.5 0 0 1-5.7 3.6l-3 1.5-3.2 1.3-4.9 1.6h-.5a50.9 50.9 0 0 1-20.3.1 51.8 51.8 0 0 1-11.1-3.6A50.5 50.5 0 0 1 22.9 91a52 52 0 0 1-9.1-9.4 50.3 50.3 0 0 1-3.7-5.7c-.6-1-1.1-2-1.6-3.1s-1-2.1-1.3-3.2a50.6 50.6 0 0 1 8.6-50.8l.8-.8.5-.6.6-.6 1.2-1.1 2.4-2.1A50.5 50.5 0 0 1 62.4 3.2a48.5 48.5 0 0 1 14.7 5.2 47 47 0 0 1 8.3 5.8l2 1.8.7.6.6.7 1.8 2a49.7 49.7 0 0 1 11.3 22.9 50.8 50.8 0 0 1-.1 20.2 51.6 51.6 0 0 1-3.6 11 50.2 50.2 0 0 1-6.6 10.5l-2.1 2.4zm-44.9 13a50.1 50.1 0 0 1-13.7-5 51.8 51.8 0 0 1-6.2-4 55.2 55.2 0 0 1-5.5-4.8 49.9 49.9 0 0 1-11-53.2c.4-1.1.9-2.1 1.3-3.1l.6-1.3a50.2 50.2 0 0 0-3.4 11 51.3 51.3 0 0 0 2.4 28.5c.4 1.1.9 2.2 1.4 3.2s1 2.1 1.6 3.1a50.6 50.6 0 0 0 3.7 5.8 51.5 51.5 0 0 0 9.2 9.5 50.9 50.9 0 0 0 10.7 6.5 51 51 0 0 0 28.7 3.9 50.3 50.3 0 0 1-19.8-.1zm61.9-39.9a50.2 50.2 0 0 1-5.5 14.7 48.4 48.4 0 0 1-5.8 8.3l-1.8 2-.6.7-.7.6-1.9 1.7h.2l2.3-2.4 2.1-2.5A51.3 51.3 0 0 0 98.9 74a51.4 51.4 0 0 0 3.2-31.6 49.6 49.6 0 0 0-2.5-8.2 49.4 49.4 0 0 0-3.1-6.5 48.7 48.7 0 0 0-5.9-8.3l-1.8-2-.6-.7-.7-.6-2-1.8A49.9 49.9 0 0 0 77.3 8a49.3 49.3 0 0 0-6.5-3.2 49.8 49.8 0 0 0-8.2-2.6A52.2 52.2 0 0 0 49.9 1a50.8 50.8 0 0 1 22.7 3.2l3.2 1.3 3.1 1.6a50.1 50.1 0 0 1 5.7 3.7l2.6 2.1 1.2 1.1 1.2 1.1 2.3 2.3 2.1 2.4a50.4 50.4 0 0 1 6.5 10.5 51.6 51.6 0 0 1 3.6 11 51.1 51.1 0 0 1 0 20.3z"></path></g><g id="SvgjsG2002" featureKey="symbolFeature-0" transform="matrix(0.12022650093560051,0,0,0.12022650093560051,94.89176854996188,68.28073600573998)" fill="#ffffff"><path xmlns="http://www.w3.org/2000/svg" d="M500,292.3l343.7,97.8c1,0.3,2,0.4,3,0.4c2.4,0,4.7-0.8,6.6-2.2c2.8-2.1,4.4-5.3,4.4-8.8v-93.8c0-4.7-3-8.9-7.4-10.4  L503.6,156.3c-0.2-0.1-0.3-0.1-0.5-0.1c-0.2,0-0.3-0.1-0.5-0.1c-0.3-0.1-0.5-0.1-0.8-0.2c-0.2,0-0.4-0.1-0.5-0.1  c-0.2,0-0.5,0-0.7-0.1c-0.2,0-0.4,0-0.6,0c-0.2,0-0.4,0-0.6,0c-0.2,0-0.5,0-0.7,0.1c-0.2,0-0.4,0.1-0.5,0.1c-0.3,0-0.5,0.1-0.8,0.2  c-0.2,0-0.3,0.1-0.5,0.1c-0.2,0-0.3,0.1-0.5,0.1L149.7,275.3c-4.4,1.5-7.4,5.7-7.4,10.4v245.1c0,3.3,1.5,6.4,4,8.5  c2,1.6,4.5,2.5,7,2.5c0.7,0,1.4-0.1,2-0.2L500,476.2L767.8,527v38l-266.1-40.9c-0.2,0-0.4,0-0.5-0.1c-0.2,0-0.4,0-0.5-0.1  c-0.2,0-0.4,0-0.6,0s-0.4,0-0.6,0c-0.2,0-0.4,0-0.5,0.1c-0.2,0-0.4,0-0.5,0.1l-346.7,53.3c-5.4,0.8-9.3,5.4-9.3,10.9v245.1  c0,6.1,4.9,11,11,11H500c0,0,0,0,0,0s0,0,0,0h346.7c6.1,0,11-4.9,11-11v-93.8c0-5.8-4.5-10.6-10.4-11l-346.7-20.4c0,0-0.1,0-0.1,0  c-0.2,0-0.4,0-0.6,0c-0.2,0-0.3,0-0.5,0c0,0-0.1,0-0.1,0l-267.1,15.7v-38.2L500,660.2L845.7,693c0.3,0,0.7,0,1,0  c2.7,0,5.4-1,7.4-2.9c2.3-2.1,3.6-5,3.6-8.1V437c0-5.1-3.4-9.5-8.3-10.7l-346.7-86.2c-0.1,0-0.2,0-0.2,0c-0.2,0-0.3-0.1-0.5-0.1  c-0.2,0-0.5-0.1-0.7-0.1c-0.2,0-0.4,0-0.6,0c-0.2,0-0.4,0-0.6,0c-0.2,0-0.4,0-0.7,0c-0.2,0-0.4,0-0.6,0c-0.2,0-0.5,0.1-0.7,0.1  c-0.2,0-0.3,0.1-0.5,0.1c-0.1,0-0.2,0-0.2,0L232.2,406v-37.5L500,292.3z M511,182.1l324.7,111.5V365L511,272.6V182.1z M511,730.8  l324.7,19.1v72.4H511V730.8z M489,639.2l-268.8,25.5c-5.6,0.5-10,5.3-10,11v59.9c0,3,1.2,5.9,3.5,8c2.2,2.1,5.2,3.2,8.2,3L489,730.8  v91.5H164.3V597.7L489,547.8V639.2z M511,364.9l324.7,80.7V670L511,639.2v-91.4l266.1,40.9c3.2,0.5,6.4-0.4,8.8-2.5  c2.4-2.1,3.8-5.1,3.8-8.3v-59.9c0-5.3-3.8-9.8-9-10.8L511,455.9V364.9z M214.4,428.8c2.7,2.1,6.1,2.8,9.4,2L489,364.9v91  l-324.7,61.6V293.6L489,182.1v90.5l-270.8,77.1c-4.7,1.3-8,5.7-8,10.6v59.9C210.2,423.5,211.8,426.7,214.4,428.8z"></path></g><g id="SvgjsG2003" featureKey="nameFeature-0" transform="matrix(0.966977702603157,0,0,0.966977702603157,54.80660648827933,179.5953196986664)" fill="#ffffff"><path d="M22.24 12 l6.04 0 l-11.04 28 l-6 0 l-11.04 -28 l6.04 0 l8 21.04 z M30.970000000000002 16.92 c-1.76 0 -3.16 -1.36 -3.16 -3.12 c0 -1.68 1.4 -3.04 3.16 -3.04 s3.16 1.36 3.16 3.04 c0 1.76 -1.4 3.12 -3.16 3.12 z M28.25 40 l0 -20.24 l5.32 0 l0 20.24 l-5.32 0 z M36.06 40 l0 -29.2 l5.28 0 l0 29.2 l-5.28 0 z M43.75 40 l0 -29.2 l5.28 0 l0 29.2 l-5.28 0 z M60.199999999999996 40.56 c-5.6 0 -10 -4.56 -10 -10.68 c0 -6.16 4.4 -10.68 10 -10.68 c2.84 0 5.08 1.16 6.52 3 l0 -2.44 l5.32 0 l0 20.24 l-5.32 0 l0 -2.48 c-1.44 1.84 -3.68 3.04 -6.52 3.04 z M61.12 35.84 c3.2 0 5.76 -2.48 5.76 -6 c0 -3.48 -2.56 -5.92 -5.76 -5.92 c-3.32 0 -5.68 2.44 -5.68 5.92 c0 3.52 2.36 6 5.68 6 z M101.33999999999999 12 l0 18.56 c0 6.12 -4.2 10 -10.56 10 c-5.64 0 -9.32 -3.08 -10.88 -7.6 l5.12 -1.48 c0.8 2.52 2.68 4.28 5.68 4.28 c3.28 0 5.2 -2.36 5.2 -5.36 l0 -13.6 l-13.2 0 l0 -4.8 l18.64 0 z M112.27 40.56 c-5.6 0 -10 -4.56 -10 -10.68 c0 -6.16 4.4 -10.68 10 -10.68 c2.84 0 5.08 1.16 6.52 3 l0 -2.44 l5.32 0 l0 20.24 l-5.32 0 l0 -2.48 c-1.44 1.84 -3.68 3.04 -6.52 3.04 z M113.19 35.84 c3.2 0 5.76 -2.48 5.76 -6 c0 -3.48 -2.56 -5.92 -5.76 -5.92 c-3.32 0 -5.68 2.44 -5.68 5.92 c0 3.52 2.36 6 5.68 6 z M138.32 19.2 c5.28 0 7.96 3.56 7.96 8.96 l0 11.84 l-5.28 0 l0 -10.84 c0 -3.08 -1.4 -5.04 -4.32 -5.04 c-2.96 0 -4.88 2.32 -4.88 5.88 l0 10 l-5.28 0 l0 -29.2 l5.28 0 l0 11.52 c1.4 -1.8 3.6 -3.12 6.52 -3.12 z M157.25 40.56 c-5.6 0 -10 -4.56 -10 -10.68 c0 -6.16 4.4 -10.68 10 -10.68 c2.84 0 5.08 1.16 6.52 3 l0 -2.44 l5.32 0 l0 20.24 l-5.32 0 l0 -2.48 c-1.44 1.84 -3.68 3.04 -6.52 3.04 z M158.17000000000002 35.84 c3.2 0 5.76 -2.48 5.76 -6 c0 -3.48 -2.56 -5.92 -5.76 -5.92 c-3.32 0 -5.68 2.44 -5.68 5.92 c0 3.52 2.36 6 5.68 6 z M195.74 19.76 l5.48 0 l-7 20.24 l-4.92 0 l-4.16 -12.76 l-4.16 12.76 l-4.96 0 l-6.96 -20.24 l5.48 0 l4.2 13.56 l4.16 -13.56 l4.44 0 l4.2 13.56 z M203.87 16.92 c-1.76 0 -3.16 -1.36 -3.16 -3.12 c0 -1.68 1.4 -3.04 3.16 -3.04 s3.16 1.36 3.16 3.04 c0 1.76 -1.4 3.12 -3.16 3.12 z M201.15 40 l0 -20.24 l5.32 0 l0 20.24 l-5.32 0 z"></path></g>
			</g>
		</svg>
	