
        <svg xmlns="http://www.w3.org/2000/svg" xmlns:xlink="http://www.w3.org/1999/xlink" version="1.1" width="3187.5" 
        height="1121.1381962801986" viewBox="0 0 3187.5 1121.1381962801986">
			<rect fill="#041635" width="3187.5" height="1121.1381962801986"/>
			<g transform="scale(9.375) translate(10, 10)">
				<defs id="SvgjsDefs4445"></defs><g id="SvgjsG4446" featureKey="PG4fjM-0" transform="matrix(1.1111050829802356,0,0,1.1111050829802356,-5.554982883122379,-5.761357945174451)" fill="#47abff"><g xmlns="http://www.w3.org/2000/svg"><polygon points="5.337,94.815 69.752,94.815 69.752,77.767 5.337,80.381  "></polygon><path d="M5.337,43.426c0,4.915,0,9.809,0,14.702c17.875-10.413,39.324-13.764,64.415-9.965c0-5.765,0-11.529,0-17.293   C49.22,26.712,27.792,30.534,5.337,43.426z"></path><path d="M72.836,8.816c-0.402,27.951,0.849,58.047,0.447,85.998c7.239,0,14.478,0,21.717,0c0-22.902,0-45.804,0-68.705   C89.839,19.116,81.438,11.834,72.836,8.816z"></path><path d="M5.337,24.211c0.157,5.138-0.469,10.434-0.312,15.573c15.55-11.975,35.636-19.707,64.727-15.573c0-5.541,0-11.06,0-16.58   C50.828,2.337,30.094,4.683,5.337,24.211z"></path><path d="M5.337,61.323c0,5.139,0,10.278,0,15.393c20.913-5.429,42.251-6.322,64.415-5.429c0-5.028,0-12.289,0-17.316   C46.493,51.827,25.156,54.62,5.337,61.323z"></path></g></g><g id="SvgjsG4447" featureKey="jxYttZ-0" transform="matrix(1.814881957278854,0,0,1.814881957278854,119.6370239547055,27.615245565068452)" fill="#ffffff"><path d="M7.24 20 l-1.26 0 l-5.78 -15 l2.38 0 l4.04 11.04 l4.02 -11.04 l2.38 0 z M16.78 10.12 l0 9.88 l-2.06 0 l0 -9.88 l2.06 0 z M16.880000000000003 6.5 c0 0.64 -0.5 1.14 -1.14 1.14 c-0.62 0 -1.12 -0.5 -1.12 -1.14 c0 -0.62 0.5 -1.12 1.12 -1.12 c0.64 0 1.14 0.5 1.14 1.12 z M21.96 4.619999999999999 l0 15.38 l-2.08 0 l0 -15.38 l2.08 0 z M27.240000000000002 4.619999999999999 l0 15.38 l-2.08 0 l0 -15.38 l2.08 0 z M34.46 9.92 c2.84 0 3.98 1.72 3.98 3.18 l0 6.9 l-2.06 0 l0 -1.08 c-0.72 0.98 -2 1.26 -2.8 1.26 c-2.26 0 -3.74 -1.32 -3.74 -3.08 c0 -2.46 1.84 -3.34 3.74 -3.34 l2.8 0 l0 -0.66 c0 -0.62 -0.24 -1.48 -1.92 -1.48 c-0.94 0 -1.8 0.5 -2.36 1.28 l-1.42 -1.28 c0.94 -1.04 2.28 -1.7 3.78 -1.7 z M36.38 16.92 l0 -1.48 l-2.52 0 c-1.22 0 -2.08 0.62 -1.94 1.74 c0.12 0.94 0.88 1.32 1.94 1.32 c1.9 0 2.52 -0.9 2.52 -1.58 z M54.44 5 l2.24 0 l0 10.26 c0 2.42 -1.18 4.94 -4.86 4.94 s-4.9 -2.52 -4.9 -4.94 l2.22 0 c0 0.9 0.08 3.1 2.68 3.1 s2.62 -2.2 2.62 -3.1 l0 -10.26 z M63.5 9.92 c2.84 0 3.98 1.72 3.98 3.18 l0 6.9 l-2.06 0 l0 -1.08 c-0.72 0.98 -2 1.26 -2.8 1.26 c-2.26 0 -3.74 -1.32 -3.74 -3.08 c0 -2.46 1.84 -3.34 3.74 -3.34 l2.8 0 l0 -0.66 c0 -0.62 -0.24 -1.48 -1.92 -1.48 c-0.94 0 -1.8 0.5 -2.36 1.28 l-1.42 -1.28 c0.94 -1.04 2.28 -1.7 3.78 -1.7 z M65.42 16.92 l0 -1.48 l-2.52 0 c-1.22 0 -2.08 0.62 -1.94 1.74 c0.12 0.94 0.88 1.32 1.94 1.32 c1.9 0 2.52 -0.9 2.52 -1.58 z M79.29999999999998 14.3 l0 5.7 l-2.06 0 l0 -5.5 c0 -2 -0.62 -2.88 -2.32 -2.88 c-1.92 0 -2.7 1.34 -2.7 3.08 l0 5.3 l-2.06 0 l0 -15 l2.06 0 l0 6.72 c0.28 -0.88 1.52 -1.68 2.7 -1.76 c2.68 -0.2 4.38 1.1 4.38 4.34 z M86.11999999999999 9.92 c2.84 0 3.98 1.72 3.98 3.18 l0 6.9 l-2.06 0 l0 -1.08 c-0.72 0.98 -2 1.26 -2.8 1.26 c-2.26 0 -3.74 -1.32 -3.74 -3.08 c0 -2.46 1.84 -3.34 3.74 -3.34 l2.8 0 l0 -0.66 c0 -0.62 -0.24 -1.48 -1.92 -1.48 c-0.94 0 -1.8 0.5 -2.36 1.28 l-1.42 -1.28 c0.94 -1.04 2.28 -1.7 3.78 -1.7 z M88.03999999999999 16.92 l0 -1.48 l-2.52 0 c-1.22 0 -2.08 0.62 -1.94 1.74 c0.12 0.94 0.88 1.32 1.94 1.32 c1.9 0 2.52 -0.9 2.52 -1.58 z M104.47999999999999 10.12 l2.06 0 l-3.76 9.88 l-1.26 0 l-2.46 -6.4 l-2.44 6.4 l-1.26 0 l-3.78 -9.88 l2.08 0 l2.34 6.9 l2.06 -6.08 l0.26 -0.82 l1.48 0 l0.28 0.82 l2.06 6.08 z M110.3 10.12 l0 9.88 l-2.06 0 l0 -9.88 l2.06 0 z M110.39999999999999 6.5 c0 0.64 -0.5 1.14 -1.14 1.14 c-0.62 0 -1.12 -0.5 -1.12 -1.14 c0 -0.62 0.5 -1.12 1.12 -1.12 c0.64 0 1.14 0.5 1.14 1.12 z"></path></g>
			</g>
		</svg>
	