<svg width="390" height="319" viewBox="0 0 390 319" fill="none" xmlns="http://www.w3.org/2000/svg">
<g clip-path="url(#clip0_776_176)">
<path fill-rule="evenodd" clip-rule="evenodd" d="M34.873 301.123C49.0025 238.088 107.966 211.273 168.222 240.483C190.777 251.415 197.856 250.42 211.586 234.377C220.916 223.483 223.457 215.284 224.068 194.133C224.954 163.469 225.473 162.37 239.847 160.666C250.341 159.421 259.073 160.089 274.02 163.287C313.702 171.778 324.748 165.182 323.138 133.968C321.464 101.499 325.66 87.1588 339.61 77.7183C348.575 71.6569 364.263 74.9076 362.796 82.5308C362.452 84.3148 362.19 84.3623 357.066 83.5862C350.182 82.5361 346.096 84.1821 340.699 90.1724C333.329 98.3593 331.997 107.044 333.336 138.233C334.814 172.771 317.209 182.6 271.916 172.519C253.722 168.47 235.489 168.412 234.734 172.404C234.154 175.443 233.647 184.125 233.256 197.636C232.676 217.794 230.011 225.964 219.795 238.868C202.835 260.3 190.736 262.128 162.105 247.584C113.637 222.966 64.0667 239.682 43.7277 287.505C37.8764 301.26 36.147 311.316 39.5467 311.777C42.3563 312.164 42.3507 315.929 39.5424 316.676C34.5673 317.996 32.5764 311.363 34.873 301.123ZM31.4012 252.649C39.787 224.248 61.9305 205.695 98.0315 196.825C111.849 193.428 118.55 194.274 145.18 202.775C177.686 213.148 193.604 195.483 183.07 160.728C177.917 143.711 178.25 132.213 184.147 123.702C191.731 112.754 197.513 112.503 223.954 121.975C252.445 132.177 274.213 119.132 270.161 94.2783C266.166 69.8088 265.939 65.2565 268.455 59.8844C274.19 47.6362 284.622 41.7789 304.56 39.6119C316.853 38.2772 318.239 37.9382 322.714 35.2211C328.814 31.5151 329.161 31.4938 329.553 34.7756C330.455 42.3298 323.607 46.1775 305.912 48.0687C280.567 50.7763 271.167 60.4362 276.038 78.7691C282.908 104.614 281.524 113.716 269.125 124.198C253.911 137.07 242.086 138.409 218.365 129.965C197.907 122.68 196.704 122.541 192.655 127.027C186.891 133.408 186.763 141.122 192.13 159.012C199.722 184.335 195.92 199.94 179.598 210.438C168.464 217.598 160.67 217.467 137.309 209.722C113.938 201.97 106.128 201.741 86.4548 208.238C67.7582 214.408 57.4748 221.2 47.0923 234.241C35.0198 249.397 29.7124 267.23 37.5496 266.294C39.0121 266.12 39.9697 266.55 40.0747 267.429C40.3241 269.518 34.334 269.995 32.1043 268.066C29.4844 265.797 29.222 260.026 31.4012 252.649ZM27.6647 220.983C32.306 201.179 50.1519 183.357 72.5364 176.182C79.8321 173.842 82.1283 173.673 100.744 174.072C134.377 174.789 144.756 165.23 143.829 134.387C143.162 112.195 145.712 102.885 155.687 91.1309C168.071 76.5394 175.321 74.2615 195.275 78.6894C224.042 85.0708 237.609 75.3248 235.913 49.4834C234.852 33.2737 237.487 26.786 247.921 19.9318C260.021 11.983 294.501 7.70851 295.26 14.0653C295.541 16.4242 296.926 16.1056 274.143 18.923C244.291 22.6166 241.738 24.951 243.253 47.1383C245.415 78.7542 226.798 93.2468 193.506 85.8604C176.37 82.0564 172.722 83.0528 162.11 94.4108C153.044 104.115 150.621 112.414 151.153 131.947C152.232 171.648 138.717 183.401 95.4441 180.398C72.8278 178.826 54.0187 186.608 40.8705 202.965C32.1592 213.801 28.051 228.813 32.9068 232.042C35.0911 233.487 35.0391 234.958 32.7994 235.226C27.9953 235.799 25.6915 229.405 27.6647 220.983Z" fill="#F0F9FF" fill-opacity="0.1"/>
</g>
<defs>
<clipPath id="clip0_776_176">
<rect width="277.68" height="358.714" fill="white" transform="matrix(0.118567 0.992946 0.992946 -0.118567 0 42.5317)"/>
</clipPath>
</defs>
</svg>
