
        <svg xmlns="http://www.w3.org/2000/svg" xmlns:xlink="http://www.w3.org/1999/xlink" version="1.1" width="3169.6340569447193" 
        height="719.2484014456107" viewBox="0 0 3169.6340569447193 719.2484014456107">
			<rect fill="#3f1760" width="3169.6340569447193" height="719.2484014456107"/>
			<g transform="scale(8.481702847235976) translate(10, 10)">
				<defs id="SvgjsDefs1001"></defs><g id="SvgjsG1007" featureKey="nameLeftFeature-0" transform="matrix(2.259865721765714,0,0,2.259865721765714,-2.1173512133909695,-0.3670862614540855)" fill="#b17a50"><path d="M3.58 6.92 l2.2 8.28 l2.26 -8.28 c0.04 -0.06 0.08 -0.12 0.16 -0.12 l2.28 0 c0.12 0 0.2 0.1 0.16 0.22 l-3.46 12.86 c-0.04 0.08 -0.08 0.12 -0.16 0.12 l-2.48 0 c-0.06 0 -0.12 -0.04 -0.14 -0.12 l-3.46 -12.86 c-0.02 -0.12 0.06 -0.22 0.18 -0.22 l2.3 0 c0.08 0 0.12 0.06 0.16 0.12 z M5.74 18.62 l-3.34 -10.66 c-0.06 -0.16 -0.28 -0.06 -0.22 0.06 l3.32 10.68 c0.08 0.3 0.4 0.32 0.5 0 l3.2 -10.68 c0.04 -0.12 -0.18 -0.2 -0.22 -0.06 z M13.580000000000002 20 c-0.1 0 -0.16 -0.08 -0.16 -0.18 l0 -12.84 c0 -0.1 0.06 -0.18 0.16 -0.18 l2.28 0 c0.1 0 0.18 0.08 0.18 0.18 l0 12.84 c0 0.1 -0.08 0.18 -0.18 0.18 l-2.28 0 z M14.620000000000001 8 l0 10.78 c0 0.18 0.22 0.18 0.22 0 l0 -10.78 c0 -0.14 -0.22 -0.14 -0.22 0 z M22.16 6.800000000000001 c0.1 0 0.18 0.08 0.18 0.18 l0 10.5 l4.32 0 c0.1 0 0.18 0.08 0.18 0.18 l0 2.16 c0 0.1 -0.08 0.18 -0.18 0.18 l-6.78 0 c-0.1 0 -0.16 -0.08 -0.16 -0.18 l0 -12.84 c0 -0.1 0.06 -0.18 0.16 -0.18 l2.28 0 z M20.92 8.02 l0 10.76 c0 0.04 0.04 0.1 0.12 0.1 l4.62 0 c0.16 0 0.16 -0.26 0 -0.26 l-4.52 0 l0 -10.6 c0 -0.14 -0.22 -0.16 -0.22 0 z M32.08 6.800000000000001 c0.1 0 0.18 0.08 0.18 0.18 l0 10.5 l4.32 0 c0.1 0 0.18 0.08 0.18 0.18 l0 2.16 c0 0.1 -0.08 0.18 -0.18 0.18 l-6.78 0 c-0.1 0 -0.16 -0.08 -0.16 -0.18 l0 -12.84 c0 -0.1 0.06 -0.18 0.16 -0.18 l2.28 0 z M30.839999999999996 8.02 l0 10.76 c0 0.04 0.04 0.1 0.12 0.1 l4.62 0 c0.16 0 0.16 -0.26 0 -0.26 l-4.52 0 l0 -10.6 c0 -0.14 -0.22 -0.16 -0.22 0 z M42.06 6.92 c0.02 -0.06 0.06 -0.12 0.14 -0.12 l2.48 0 c0.08 0 0.12 0.06 0.14 0.12 l3.46 12.86 c0.02 0.12 -0.06 0.22 -0.18 0.22 l-2.28 0 c-0.06 0 -0.12 -0.04 -0.14 -0.12 l-0.78 -2.8 l-2.92 0 l-0.76 2.8 c-0.02 0.08 -0.06 0.12 -0.14 0.12 l-2.3 0 c-0.12 0 -0.2 -0.1 -0.18 -0.22 z M42.62 14.6 l1.66 0 l-0.86 -3.02 z M45.7 15.780000000000001 l0.92 3 c0.04 0.12 0.26 0.1 0.2 -0.06 l-3.2 -10.64 c-0.06 -0.26 -0.4 -0.28 -0.46 0 l-3.1 10.64 c-0.06 0.14 0.16 0.2 0.22 0.08 l0.88 -3.02 l4.54 0 z M41.22 15.52 l2.18 -7.36 l2.22 7.36 l-4.4 0 z"></path></g><g id="SvgjsG1008" featureKey="inlineSymbolFeature-0" transform="matrix(0.7623529411764706,0,0,0.7623529411764706,108.7035294117647,-3.8117647058823527)" fill="#b17a50"><g xmlns="http://www.w3.org/2000/svg"><g><path fill-rule="evenodd" clip-rule="evenodd" d="M34,15v42H24v33h2V59h12v4H28v2h10v4H28v2h10v4H28v2h10v4H28v2h10v7h2v-7h32v-2    H40v-4h32v-2H40v-4h32v-2H40v-4h32v-2H40v-4h32v-2H50v-4h22v-2H50v-4h22v-2H50v-4h22v-2H50v-4h22v-2H50v-4h22v-2H50v-4h22v-2H50    v-4h24v73h2V5L34,15z M48,21H38v2h10v4H38v2h10v4H38v2h10v4H38v2h10v4H38v2h10v4H38v2h10v4H36V17h12V21z M74,15H42.4L74,7.476V15z    "></path></g></g></g><g id="SvgjsG1009" featureKey="nameRightFeature-0" transform="matrix(2.247877126648307,0,0,2.247877126648307,178.86268505878226,-0.10573489132457325)" fill="#b17a50"><path d="M3.6200000000000006 22.64 l0 -0.3 c2.94 0.12 3.06 -1.82 3.06 -4.14 l0 -11.12 l-1.72 0 l0 -0.3 l5.9 0 l0 0.3 l-1.74 0 l0 9.56 c0 2.82 -1.06 6.22 -5.5 6 z M10.9 20 l0 -0.3 l0.4 0 c0.62 0 0.96 -0.3 1.3 -1.18 l4.52 -11.8 l0.54 0 l5.3 12.98 l0.98 0 l0 0.3 l-4.94 0 l0 -0.3 l1.4 0 l-1.78 -4.34 l-4.5 0 l-1.2 3.16 c-0.28 0.72 0.16 1.18 1.08 1.18 l0.6 0 l0 0.3 l-3.7 0 z M14.24 15.059999999999999 l4.26 0 l-2.2 -5.38 z M24.3 20 l0 -0.3 l1.72 0 l0 -12.62 l-1.72 0 l0 -0.3 l5.9 0 l0 0.3 l-1.74 0 l0 6.12 l6.56 0 l0 -6.12 l-1.72 0 l0 -0.3 l5.9 0 l0 0.3 l-1.74 0 l0 12.62 l1.74 0 l0 0.3 l-5.9 0 l0 -0.3 l1.72 0 l0 -6.2 l-6.56 0 l0 6.2 l1.74 0 l0 0.3 l-5.9 0 z M39.4 20 l0 -0.3 l0.4 0 c0.62 0 0.96 -0.3 1.3 -1.18 l4.52 -11.8 l0.54 0 l5.3 12.98 l0.98 0 l0 0.3 l-4.94 0 l0 -0.3 l1.4 0 l-1.78 -4.34 l-4.5 0 l-1.2 3.16 c-0.28 0.72 0.16 1.18 1.08 1.18 l0.6 0 l0 0.3 l-3.7 0 z M42.74 15.059999999999999 l4.26 0 l-2.2 -5.38 z M57.879999999999995 20.08 l-4.78 -13 l-1.36 0 l0 -0.3 l5.52 0 l0 0.3 l-1.64 0 l3.62 9.88 l2.38 -6.46 l-1.26 -3.42 l-1.46 0 l0 -0.3 l5.64 0 l0 0.3 l-1.66 0 l3.6 9.84 l3.04 -8.76 c0.24 -0.72 -0.2 -1.08 -1.12 -1.08 l-0.6 0 l0 -0.3 l3.7 0 l0 0.3 l-0.4 0 c-0.62 0 -1 0.3 -1.3 1.18 l-4.08 11.82 l-0.56 0 l-3.38 -9.14 l-3.36 9.14 l-0.54 0 z M71.88 20 l0 -0.3 l1.72 0 l0 -12.62 l-1.72 0 l0 -0.3 l5.9 0 l0 0.3 l-1.74 0 l0 12.62 l1.74 0 l0 0.3 l-5.9 0 z"></path></g>
			</g>
		</svg>
	